G75*
G70*
%OFA0B0*%
%FSLAX24Y24*%
%IPPOS*%
%LPD*%
%AMOC8*
5,1,8,0,0,1.08239X$1,22.5*
%
%ADD10C,0.0000*%
%ADD11R,0.0240X0.0870*%
%ADD12C,0.0600*%
%ADD13R,0.0472X0.0315*%
%ADD14R,0.0315X0.0472*%
%ADD15R,0.0551X0.0709*%
%ADD16R,0.0433X0.0709*%
%ADD17C,0.0180*%
%ADD18C,0.0357*%
%ADD19C,0.0120*%
%ADD20C,0.0240*%
D10*
X000285Y001285D02*
X000285Y006285D01*
X000287Y006345D01*
X000292Y006406D01*
X000301Y006465D01*
X000314Y006524D01*
X000330Y006583D01*
X000350Y006640D01*
X000373Y006695D01*
X000400Y006750D01*
X000429Y006802D01*
X000462Y006853D01*
X000498Y006902D01*
X000536Y006948D01*
X000578Y006992D01*
X000622Y007034D01*
X000668Y007072D01*
X000717Y007108D01*
X000768Y007141D01*
X000820Y007170D01*
X000875Y007197D01*
X000930Y007220D01*
X000987Y007240D01*
X001046Y007256D01*
X001105Y007269D01*
X001164Y007278D01*
X001225Y007283D01*
X001285Y007285D01*
X006410Y007285D01*
X006470Y007283D01*
X006531Y007278D01*
X006590Y007269D01*
X006649Y007256D01*
X006708Y007240D01*
X006765Y007220D01*
X006820Y007197D01*
X006875Y007170D01*
X006927Y007141D01*
X006978Y007108D01*
X007027Y007072D01*
X007073Y007034D01*
X007117Y006992D01*
X007159Y006948D01*
X007197Y006902D01*
X007233Y006853D01*
X007266Y006802D01*
X007295Y006750D01*
X007322Y006695D01*
X007345Y006640D01*
X007365Y006583D01*
X007381Y006524D01*
X007394Y006465D01*
X007403Y006406D01*
X007408Y006345D01*
X007410Y006285D01*
X007410Y001285D01*
X007408Y001225D01*
X007403Y001164D01*
X007394Y001105D01*
X007381Y001046D01*
X007365Y000987D01*
X007345Y000930D01*
X007322Y000875D01*
X007295Y000820D01*
X007266Y000768D01*
X007233Y000717D01*
X007197Y000668D01*
X007159Y000622D01*
X007117Y000578D01*
X007073Y000536D01*
X007027Y000498D01*
X006978Y000462D01*
X006927Y000429D01*
X006875Y000400D01*
X006820Y000373D01*
X006765Y000350D01*
X006708Y000330D01*
X006649Y000314D01*
X006590Y000301D01*
X006531Y000292D01*
X006470Y000287D01*
X006410Y000285D01*
X001285Y000285D01*
X001225Y000287D01*
X001164Y000292D01*
X001105Y000301D01*
X001046Y000314D01*
X000987Y000330D01*
X000930Y000350D01*
X000875Y000373D01*
X000820Y000400D01*
X000768Y000429D01*
X000717Y000462D01*
X000668Y000498D01*
X000622Y000536D01*
X000578Y000578D01*
X000536Y000622D01*
X000498Y000668D01*
X000462Y000717D01*
X000429Y000768D01*
X000400Y000820D01*
X000373Y000875D01*
X000350Y000930D01*
X000330Y000987D01*
X000314Y001046D01*
X000301Y001105D01*
X000292Y001164D01*
X000287Y001225D01*
X000285Y001285D01*
D11*
X005035Y003465D03*
X005535Y003465D03*
X006035Y003465D03*
X006535Y003465D03*
X006535Y006115D03*
X006035Y006115D03*
X005535Y006115D03*
X005035Y006115D03*
D12*
X005410Y001785D03*
X004410Y001785D03*
X003410Y001785D03*
X002410Y001785D03*
X001410Y001785D03*
X006410Y001785D03*
D13*
X004160Y003306D03*
X004160Y004014D03*
X001410Y003389D03*
X001410Y002681D03*
D14*
X002306Y003035D03*
X003014Y003035D03*
X003556Y005035D03*
X004264Y005035D03*
X004264Y006035D03*
X003556Y006035D03*
D15*
X002619Y006151D03*
X001201Y006151D03*
X001201Y004419D03*
X002619Y004419D03*
D16*
X001910Y004419D03*
X001910Y006151D03*
D17*
X002160Y005285D02*
X002806Y005285D01*
X003556Y006035D01*
X004264Y006035D02*
X004264Y006639D01*
X005535Y006115D02*
X005535Y005535D01*
X005035Y005035D01*
X004264Y005035D01*
X003910Y004535D02*
X004785Y004535D01*
X005035Y004285D01*
X005535Y004285D01*
X005535Y003465D01*
X005035Y003465D02*
X005035Y002910D01*
X004410Y002285D01*
X004410Y001785D01*
X003410Y001785D02*
X003410Y002535D01*
X004160Y003285D01*
X004160Y003306D01*
X003014Y003035D02*
X003014Y003639D01*
X003910Y004535D01*
X003535Y004910D02*
X003535Y005014D01*
X003556Y005035D01*
X003535Y004910D02*
X003044Y004419D01*
X002619Y004419D01*
X002035Y003785D02*
X002306Y003514D01*
X002306Y003035D01*
X002035Y003785D02*
X001410Y003785D01*
X001201Y003994D01*
X001201Y004419D01*
X001910Y004419D02*
X001910Y005035D01*
X002160Y005285D01*
X001389Y003410D02*
X000848Y003410D01*
X001389Y003410D02*
X001410Y003389D01*
X001410Y001785D02*
X002160Y001035D01*
X006660Y001035D01*
X007035Y001410D01*
X007035Y004910D01*
X006535Y005410D01*
X006535Y006115D01*
X006035Y006115D02*
X006035Y005285D01*
X006535Y004285D02*
X006535Y003465D01*
X006035Y003465D02*
X006035Y002910D01*
X005410Y002285D01*
X005410Y001785D01*
D18*
X005535Y004285D03*
X006535Y004285D03*
X006035Y005285D03*
X004264Y006639D03*
X000848Y003410D03*
D19*
X000626Y000949D02*
X000762Y000762D01*
X000949Y000626D01*
X001169Y000554D01*
X001285Y000545D01*
X006410Y000545D01*
X006526Y000554D01*
X006746Y000626D01*
X006933Y000762D01*
X007069Y000949D01*
X007124Y001117D01*
X006889Y000882D01*
X006813Y000806D01*
X006714Y000765D01*
X002106Y000765D01*
X002007Y000806D01*
X001507Y001306D01*
X001505Y001305D01*
X001315Y001305D01*
X001138Y001378D01*
X001003Y001513D01*
X000930Y001690D01*
X000930Y001880D01*
X001003Y002057D01*
X001110Y002164D01*
X001110Y002343D01*
X001099Y002343D01*
X000994Y002449D01*
X000994Y002913D01*
X001099Y003018D01*
X001721Y003018D01*
X001826Y002913D01*
X001826Y002449D01*
X001721Y002343D01*
X001710Y002343D01*
X001710Y002164D01*
X001817Y002057D01*
X001890Y001880D01*
X001890Y001690D01*
X001889Y001688D01*
X002064Y001513D01*
X002034Y001554D01*
X002002Y001616D01*
X001981Y001682D01*
X001971Y001745D01*
X002370Y001745D01*
X002370Y001825D01*
X002370Y002224D01*
X002307Y002214D01*
X002241Y002193D01*
X002179Y002161D01*
X002123Y002121D01*
X002074Y002072D01*
X002034Y002016D01*
X002002Y001954D01*
X001981Y001888D01*
X001971Y001825D01*
X002370Y001825D01*
X002450Y001825D01*
X002450Y002224D01*
X002513Y002214D01*
X002579Y002193D01*
X002641Y002161D01*
X002697Y002121D01*
X002746Y002072D01*
X002786Y002016D01*
X002818Y001954D01*
X002839Y001888D01*
X002849Y001825D01*
X002450Y001825D01*
X002450Y001745D01*
X002849Y001745D01*
X002839Y001682D01*
X002818Y001616D01*
X002786Y001554D01*
X002746Y001498D01*
X002697Y001449D01*
X002641Y001409D01*
X002579Y001377D01*
X002513Y001356D01*
X002450Y001346D01*
X002450Y001745D01*
X002370Y001745D01*
X002370Y001346D01*
X002307Y001356D01*
X002241Y001377D01*
X002179Y001409D01*
X002138Y001439D01*
X002272Y001305D01*
X006548Y001305D01*
X006578Y001335D01*
X006505Y001305D01*
X006315Y001305D01*
X006138Y001378D01*
X006003Y001513D01*
X005930Y001690D01*
X005930Y001880D01*
X006003Y002057D01*
X006138Y002192D01*
X006315Y002265D01*
X006505Y002265D01*
X006682Y002192D01*
X006765Y002109D01*
X006765Y002885D01*
X006730Y002850D01*
X006340Y002850D01*
X006305Y002885D01*
X006305Y002856D01*
X006264Y002757D01*
X005690Y002183D01*
X005817Y002057D01*
X005890Y001880D01*
X005890Y001690D01*
X005817Y001513D01*
X005682Y001378D01*
X005505Y001305D01*
X005315Y001305D01*
X005138Y001378D01*
X005003Y001513D01*
X004930Y001690D01*
X004930Y001880D01*
X005003Y002057D01*
X005138Y002192D01*
X005140Y002193D01*
X005140Y002339D01*
X005181Y002438D01*
X005257Y002514D01*
X005593Y002850D01*
X005340Y002850D01*
X005305Y002885D01*
X005305Y002856D01*
X005264Y002757D01*
X004690Y002183D01*
X004817Y002057D01*
X004890Y001880D01*
X004890Y001690D01*
X004817Y001513D01*
X004682Y001378D01*
X004505Y001305D01*
X004315Y001305D01*
X004138Y001378D01*
X004003Y001513D01*
X003930Y001690D01*
X003930Y001880D01*
X004003Y002057D01*
X004138Y002192D01*
X004140Y002193D01*
X004140Y002339D01*
X004181Y002438D01*
X004257Y002514D01*
X004735Y002992D01*
X004735Y003975D01*
X004840Y004080D01*
X004858Y004080D01*
X004806Y004132D01*
X004673Y004265D01*
X004501Y004265D01*
X004508Y004258D01*
X004527Y004226D01*
X004536Y004190D01*
X004536Y004033D01*
X004179Y004033D01*
X004179Y003996D01*
X004536Y003996D01*
X004536Y003838D01*
X004527Y003803D01*
X004508Y003771D01*
X004482Y003745D01*
X004450Y003726D01*
X004415Y003717D01*
X004179Y003717D01*
X004179Y003996D01*
X004141Y003996D01*
X003784Y003996D01*
X003784Y003838D01*
X003793Y003803D01*
X003812Y003771D01*
X003838Y003745D01*
X003870Y003726D01*
X003905Y003717D01*
X004141Y003717D01*
X004141Y003996D01*
X004141Y004033D01*
X003790Y004033D01*
X003284Y003527D01*
X003284Y003413D01*
X003352Y003346D01*
X003352Y002859D01*
X003744Y003251D01*
X003744Y003538D01*
X003849Y003643D01*
X004471Y003643D01*
X004576Y003538D01*
X004576Y003074D01*
X004471Y002968D01*
X004225Y002968D01*
X003680Y002423D01*
X003680Y002193D01*
X003682Y002192D01*
X003817Y002057D01*
X003890Y001880D01*
X003890Y001690D01*
X003817Y001513D01*
X003682Y001378D01*
X003505Y001305D01*
X003315Y001305D01*
X003138Y001378D01*
X003003Y001513D01*
X002930Y001690D01*
X002930Y001880D01*
X003003Y002057D01*
X003138Y002192D01*
X003140Y002193D01*
X003140Y002589D01*
X003152Y002619D01*
X002782Y002619D01*
X002677Y002724D01*
X002677Y003346D01*
X002744Y003413D01*
X002744Y003693D01*
X002785Y003792D01*
X002878Y003885D01*
X002317Y003885D01*
X002535Y003667D01*
X002576Y003568D01*
X002576Y003413D01*
X002643Y003346D01*
X002643Y002724D01*
X002538Y002619D01*
X002074Y002619D01*
X001968Y002724D01*
X001968Y003346D01*
X002030Y003408D01*
X001923Y003515D01*
X001826Y003515D01*
X001826Y003157D01*
X001721Y003052D01*
X001099Y003052D01*
X001047Y003104D01*
X000919Y003051D01*
X000776Y003051D01*
X000644Y003106D01*
X000545Y003205D01*
X000545Y001285D01*
X000554Y001169D01*
X000626Y000949D01*
X000613Y000990D02*
X001824Y000990D01*
X001705Y001108D02*
X000574Y001108D01*
X000550Y001227D02*
X001587Y001227D01*
X001218Y001345D02*
X000545Y001345D01*
X000545Y001464D02*
X001053Y001464D01*
X000975Y001582D02*
X000545Y001582D01*
X000545Y001701D02*
X000930Y001701D01*
X000930Y001819D02*
X000545Y001819D01*
X000545Y001938D02*
X000954Y001938D01*
X001003Y002056D02*
X000545Y002056D01*
X000545Y002175D02*
X001110Y002175D01*
X001110Y002293D02*
X000545Y002293D01*
X000545Y002412D02*
X001031Y002412D01*
X000994Y002530D02*
X000545Y002530D01*
X000545Y002649D02*
X000994Y002649D01*
X000994Y002767D02*
X000545Y002767D01*
X000545Y002886D02*
X000994Y002886D01*
X001085Y003004D02*
X000545Y003004D01*
X000545Y003123D02*
X000628Y003123D01*
X000545Y003615D02*
X000545Y006285D01*
X000554Y006401D01*
X000626Y006621D01*
X000762Y006808D01*
X000949Y006944D01*
X001169Y007016D01*
X001285Y007025D01*
X006410Y007025D01*
X006526Y007016D01*
X006746Y006944D01*
X006933Y006808D01*
X007069Y006621D01*
X007141Y006401D01*
X007150Y006285D01*
X007150Y005177D01*
X006805Y005522D01*
X006805Y005575D01*
X006835Y005605D01*
X006835Y006625D01*
X006730Y006730D01*
X006340Y006730D01*
X006285Y006675D01*
X006230Y006730D01*
X005840Y006730D01*
X005785Y006675D01*
X005730Y006730D01*
X005340Y006730D01*
X005257Y006646D01*
X005241Y006662D01*
X005209Y006680D01*
X005173Y006690D01*
X005035Y006690D01*
X005035Y006115D01*
X005035Y006115D01*
X005035Y005540D01*
X005158Y005540D01*
X004923Y005305D01*
X004602Y005305D01*
X004602Y005346D01*
X004496Y005451D01*
X004032Y005451D01*
X003927Y005346D01*
X003927Y004805D01*
X003893Y004805D01*
X003893Y005346D01*
X003788Y005451D01*
X003354Y005451D01*
X003521Y005619D01*
X003788Y005619D01*
X003893Y005724D01*
X003893Y006346D01*
X003788Y006451D01*
X003324Y006451D01*
X003218Y006346D01*
X003218Y006079D01*
X003034Y005895D01*
X003034Y006091D01*
X002679Y006091D01*
X002679Y006211D01*
X003034Y006211D01*
X003034Y006524D01*
X003025Y006560D01*
X003006Y006591D01*
X002980Y006617D01*
X002948Y006636D01*
X002913Y006645D01*
X002679Y006645D01*
X002679Y006211D01*
X002559Y006211D01*
X002559Y006645D01*
X002325Y006645D01*
X002289Y006636D01*
X002257Y006617D01*
X002235Y006595D01*
X002212Y006617D01*
X002181Y006636D01*
X002145Y006645D01*
X001958Y006645D01*
X001958Y006199D01*
X002267Y006199D01*
X002267Y006211D01*
X002559Y006211D01*
X002559Y006091D01*
X002679Y006091D01*
X002679Y005657D01*
X002796Y005657D01*
X002694Y005555D01*
X002106Y005555D01*
X002007Y005514D01*
X001931Y005438D01*
X001681Y005188D01*
X001640Y005089D01*
X001640Y004953D01*
X001619Y004953D01*
X001585Y004919D01*
X001551Y004953D01*
X000851Y004953D01*
X000746Y004848D01*
X000746Y003990D01*
X000851Y003885D01*
X000954Y003885D01*
X000972Y003841D01*
X001093Y003720D01*
X001069Y003696D01*
X001051Y003714D01*
X000919Y003769D01*
X000776Y003769D01*
X000644Y003714D01*
X000545Y003615D01*
X000545Y003715D02*
X000646Y003715D01*
X000545Y003834D02*
X000980Y003834D01*
X001049Y003715D02*
X001087Y003715D01*
X000784Y003952D02*
X000545Y003952D01*
X000545Y004071D02*
X000746Y004071D01*
X000746Y004189D02*
X000545Y004189D01*
X000545Y004308D02*
X000746Y004308D01*
X000746Y004426D02*
X000545Y004426D01*
X000545Y004545D02*
X000746Y004545D01*
X000746Y004663D02*
X000545Y004663D01*
X000545Y004782D02*
X000746Y004782D01*
X000798Y004900D02*
X000545Y004900D01*
X000545Y005019D02*
X001640Y005019D01*
X001660Y005137D02*
X000545Y005137D01*
X000545Y005256D02*
X001749Y005256D01*
X001867Y005374D02*
X000545Y005374D01*
X000545Y005493D02*
X001986Y005493D01*
X001958Y005657D02*
X002145Y005657D01*
X002181Y005666D01*
X002212Y005685D01*
X002235Y005707D01*
X002257Y005685D01*
X002289Y005666D01*
X002325Y005657D01*
X002559Y005657D01*
X002559Y006091D01*
X002267Y006091D01*
X002267Y006103D01*
X001958Y006103D01*
X001958Y005657D01*
X001958Y005730D02*
X001862Y005730D01*
X001862Y005657D02*
X001862Y006103D01*
X001958Y006103D01*
X001958Y006199D01*
X001862Y006199D01*
X001862Y006103D01*
X001553Y006103D01*
X001553Y006091D01*
X001261Y006091D01*
X001261Y005657D01*
X001495Y005657D01*
X001531Y005666D01*
X001563Y005685D01*
X001585Y005707D01*
X001608Y005685D01*
X001639Y005666D01*
X001675Y005657D01*
X001862Y005657D01*
X001862Y005848D02*
X001958Y005848D01*
X001958Y005967D02*
X001862Y005967D01*
X001862Y006085D02*
X001958Y006085D01*
X001958Y006204D02*
X001862Y006204D01*
X001862Y006199D02*
X001862Y006645D01*
X001675Y006645D01*
X001639Y006636D01*
X001608Y006617D01*
X001585Y006595D01*
X001563Y006617D01*
X001531Y006636D01*
X001495Y006645D01*
X001261Y006645D01*
X001261Y006211D01*
X001141Y006211D01*
X001141Y006091D01*
X000786Y006091D01*
X000786Y005778D01*
X000795Y005743D01*
X000814Y005711D01*
X000840Y005685D01*
X000872Y005666D01*
X000907Y005657D01*
X001141Y005657D01*
X001141Y006091D01*
X001261Y006091D01*
X001261Y006211D01*
X001553Y006211D01*
X001553Y006199D01*
X001862Y006199D01*
X001862Y006322D02*
X001958Y006322D01*
X001958Y006441D02*
X001862Y006441D01*
X001862Y006559D02*
X001958Y006559D01*
X002267Y006204D02*
X002559Y006204D01*
X002559Y006085D02*
X002679Y006085D01*
X002679Y006204D02*
X003218Y006204D01*
X003218Y006085D02*
X003034Y006085D01*
X003034Y005967D02*
X003105Y005967D01*
X003034Y006322D02*
X003218Y006322D01*
X003313Y006441D02*
X003034Y006441D01*
X003025Y006559D02*
X003909Y006559D01*
X003906Y006568D02*
X003960Y006436D01*
X003989Y006408D01*
X003927Y006346D01*
X003927Y005724D01*
X004032Y005619D01*
X004496Y005619D01*
X004602Y005724D01*
X004602Y006346D01*
X004540Y006408D01*
X004568Y006436D01*
X004623Y006568D01*
X004623Y006711D01*
X004568Y006843D01*
X004468Y006943D01*
X004336Y006998D01*
X004193Y006998D01*
X004061Y006943D01*
X003960Y006843D01*
X003906Y006711D01*
X003906Y006568D01*
X003958Y006441D02*
X003798Y006441D01*
X003893Y006322D02*
X003927Y006322D01*
X003927Y006204D02*
X003893Y006204D01*
X003893Y006085D02*
X003927Y006085D01*
X003927Y005967D02*
X003893Y005967D01*
X003893Y005848D02*
X003927Y005848D01*
X003927Y005730D02*
X003893Y005730D01*
X003865Y005374D02*
X003955Y005374D01*
X003927Y005256D02*
X003893Y005256D01*
X003893Y005137D02*
X003927Y005137D01*
X003927Y005019D02*
X003893Y005019D01*
X003893Y004900D02*
X003927Y004900D01*
X003395Y005493D02*
X005111Y005493D01*
X005035Y005540D02*
X005035Y006115D01*
X005035Y006115D01*
X005035Y006115D01*
X004775Y006115D01*
X004775Y006568D01*
X004785Y006604D01*
X004803Y006636D01*
X004829Y006662D01*
X004861Y006680D01*
X004897Y006690D01*
X005035Y006690D01*
X005035Y006115D01*
X004775Y006115D01*
X004775Y005662D01*
X004785Y005626D01*
X004803Y005594D01*
X004829Y005568D01*
X004861Y005550D01*
X004897Y005540D01*
X005035Y005540D01*
X005035Y005611D02*
X005035Y005611D01*
X005035Y005730D02*
X005035Y005730D01*
X005035Y005848D02*
X005035Y005848D01*
X005035Y005967D02*
X005035Y005967D01*
X005035Y006085D02*
X005035Y006085D01*
X005035Y006204D02*
X005035Y006204D01*
X005035Y006322D02*
X005035Y006322D01*
X005035Y006441D02*
X005035Y006441D01*
X005035Y006559D02*
X005035Y006559D01*
X005035Y006678D02*
X005035Y006678D01*
X004856Y006678D02*
X004623Y006678D01*
X004588Y006796D02*
X006942Y006796D01*
X007028Y006678D02*
X006782Y006678D01*
X006835Y006559D02*
X007089Y006559D01*
X007128Y006441D02*
X006835Y006441D01*
X006835Y006322D02*
X007147Y006322D01*
X007150Y006204D02*
X006835Y006204D01*
X006835Y006085D02*
X007150Y006085D01*
X007150Y005967D02*
X006835Y005967D01*
X006835Y005848D02*
X007150Y005848D01*
X007150Y005730D02*
X006835Y005730D01*
X006835Y005611D02*
X007150Y005611D01*
X007150Y005493D02*
X006834Y005493D01*
X006953Y005374D02*
X007150Y005374D01*
X007150Y005256D02*
X007071Y005256D01*
X006288Y006678D02*
X006282Y006678D01*
X005788Y006678D02*
X005782Y006678D01*
X005288Y006678D02*
X005214Y006678D01*
X004775Y006559D02*
X004619Y006559D01*
X004570Y006441D02*
X004775Y006441D01*
X004775Y006322D02*
X004602Y006322D01*
X004602Y006204D02*
X004775Y006204D01*
X004775Y006085D02*
X004602Y006085D01*
X004602Y005967D02*
X004775Y005967D01*
X004775Y005848D02*
X004602Y005848D01*
X004602Y005730D02*
X004775Y005730D01*
X004793Y005611D02*
X003514Y005611D01*
X002750Y005611D02*
X000545Y005611D01*
X000545Y005730D02*
X000803Y005730D01*
X000786Y005848D02*
X000545Y005848D01*
X000545Y005967D02*
X000786Y005967D01*
X000786Y006085D02*
X000545Y006085D01*
X000545Y006204D02*
X001141Y006204D01*
X001141Y006211D02*
X000786Y006211D01*
X000786Y006524D01*
X000795Y006560D01*
X000814Y006591D01*
X000840Y006617D01*
X000872Y006636D01*
X000907Y006645D01*
X001141Y006645D01*
X001141Y006211D01*
X001141Y006322D02*
X001261Y006322D01*
X001261Y006204D02*
X001553Y006204D01*
X001261Y006085D02*
X001141Y006085D01*
X001141Y005967D02*
X001261Y005967D01*
X001261Y005848D02*
X001141Y005848D01*
X001141Y005730D02*
X001261Y005730D01*
X000786Y006322D02*
X000548Y006322D01*
X000567Y006441D02*
X000786Y006441D01*
X000795Y006559D02*
X000606Y006559D01*
X000667Y006678D02*
X003906Y006678D01*
X003941Y006796D02*
X000753Y006796D01*
X000908Y006915D02*
X004032Y006915D01*
X004496Y006915D02*
X006787Y006915D01*
X004992Y005374D02*
X004574Y005374D01*
X004536Y004189D02*
X004749Y004189D01*
X004831Y004071D02*
X004536Y004071D01*
X004536Y003952D02*
X004735Y003952D01*
X004735Y003834D02*
X004535Y003834D01*
X004735Y003715D02*
X003472Y003715D01*
X003590Y003834D02*
X003785Y003834D01*
X003784Y003952D02*
X003709Y003952D01*
X003803Y003597D02*
X003353Y003597D01*
X003284Y003478D02*
X003744Y003478D01*
X003744Y003360D02*
X003338Y003360D01*
X003352Y003241D02*
X003734Y003241D01*
X003616Y003123D02*
X003352Y003123D01*
X003352Y003004D02*
X003497Y003004D01*
X003379Y002886D02*
X003352Y002886D01*
X003140Y002530D02*
X001826Y002530D01*
X001826Y002649D02*
X002044Y002649D01*
X001968Y002767D02*
X001826Y002767D01*
X001826Y002886D02*
X001968Y002886D01*
X001968Y003004D02*
X001735Y003004D01*
X001791Y003123D02*
X001968Y003123D01*
X001968Y003241D02*
X001826Y003241D01*
X001826Y003360D02*
X001982Y003360D01*
X001960Y003478D02*
X001826Y003478D01*
X002368Y003834D02*
X002827Y003834D01*
X002753Y003715D02*
X002487Y003715D01*
X002564Y003597D02*
X002744Y003597D01*
X002744Y003478D02*
X002576Y003478D01*
X002629Y003360D02*
X002691Y003360D01*
X002677Y003241D02*
X002643Y003241D01*
X002643Y003123D02*
X002677Y003123D01*
X002677Y003004D02*
X002643Y003004D01*
X002643Y002886D02*
X002677Y002886D01*
X002677Y002767D02*
X002643Y002767D01*
X002567Y002649D02*
X002753Y002649D01*
X003140Y002412D02*
X001789Y002412D01*
X001710Y002293D02*
X003140Y002293D01*
X003121Y002175D02*
X002615Y002175D01*
X002450Y002175D02*
X002370Y002175D01*
X002370Y002056D02*
X002450Y002056D01*
X002450Y001938D02*
X002370Y001938D01*
X002370Y001819D02*
X001890Y001819D01*
X001866Y001938D02*
X001997Y001938D01*
X002063Y002056D02*
X001817Y002056D01*
X001710Y002175D02*
X002205Y002175D01*
X002450Y001819D02*
X002930Y001819D01*
X002954Y001938D02*
X002823Y001938D01*
X002757Y002056D02*
X003003Y002056D01*
X002930Y001701D02*
X002842Y001701D01*
X002800Y001582D02*
X002975Y001582D01*
X003053Y001464D02*
X002711Y001464D01*
X002450Y001464D02*
X002370Y001464D01*
X002370Y001582D02*
X002450Y001582D01*
X002450Y001701D02*
X002370Y001701D01*
X002020Y001582D02*
X001995Y001582D01*
X001978Y001701D02*
X001890Y001701D01*
X002232Y001345D02*
X003218Y001345D01*
X003602Y001345D02*
X004218Y001345D01*
X004053Y001464D02*
X003767Y001464D01*
X003845Y001582D02*
X003975Y001582D01*
X003930Y001701D02*
X003890Y001701D01*
X003890Y001819D02*
X003930Y001819D01*
X003954Y001938D02*
X003866Y001938D01*
X003817Y002056D02*
X004003Y002056D01*
X004121Y002175D02*
X003699Y002175D01*
X003680Y002293D02*
X004140Y002293D01*
X004170Y002412D02*
X003680Y002412D01*
X003787Y002530D02*
X004273Y002530D01*
X004392Y002649D02*
X003905Y002649D01*
X004024Y002767D02*
X004510Y002767D01*
X004629Y002886D02*
X004142Y002886D01*
X004507Y003004D02*
X004735Y003004D01*
X004735Y003123D02*
X004576Y003123D01*
X004576Y003241D02*
X004735Y003241D01*
X004735Y003360D02*
X004576Y003360D01*
X004576Y003478D02*
X004735Y003478D01*
X004735Y003597D02*
X004517Y003597D01*
X004179Y003834D02*
X004141Y003834D01*
X004141Y003952D02*
X004179Y003952D01*
X005268Y002767D02*
X005510Y002767D01*
X005392Y002649D02*
X005155Y002649D01*
X005037Y002530D02*
X005273Y002530D01*
X005170Y002412D02*
X004918Y002412D01*
X004800Y002293D02*
X005140Y002293D01*
X005121Y002175D02*
X004699Y002175D01*
X004817Y002056D02*
X005003Y002056D01*
X004954Y001938D02*
X004866Y001938D01*
X004890Y001819D02*
X004930Y001819D01*
X004930Y001701D02*
X004890Y001701D01*
X004845Y001582D02*
X004975Y001582D01*
X005053Y001464D02*
X004767Y001464D01*
X004602Y001345D02*
X005218Y001345D01*
X005602Y001345D02*
X006218Y001345D01*
X006053Y001464D02*
X005767Y001464D01*
X005845Y001582D02*
X005975Y001582D01*
X005930Y001701D02*
X005890Y001701D01*
X005890Y001819D02*
X005930Y001819D01*
X005954Y001938D02*
X005866Y001938D01*
X005817Y002056D02*
X006003Y002056D01*
X006121Y002175D02*
X005699Y002175D01*
X005800Y002293D02*
X006765Y002293D01*
X006765Y002412D02*
X005918Y002412D01*
X006037Y002530D02*
X006765Y002530D01*
X006765Y002649D02*
X006155Y002649D01*
X006268Y002767D02*
X006765Y002767D01*
X006765Y002175D02*
X006699Y002175D01*
X007115Y001108D02*
X007121Y001108D01*
X007082Y000990D02*
X006996Y000990D01*
X007013Y000871D02*
X006878Y000871D01*
X006921Y000753D02*
X000774Y000753D01*
X000682Y000871D02*
X001942Y000871D01*
X000938Y000634D02*
X006757Y000634D01*
X002679Y005730D02*
X002559Y005730D01*
X002559Y005848D02*
X002679Y005848D01*
X002679Y005967D02*
X002559Y005967D01*
X002559Y006322D02*
X002679Y006322D01*
X002679Y006441D02*
X002559Y006441D01*
X002559Y006559D02*
X002679Y006559D01*
X001261Y006559D02*
X001141Y006559D01*
X001141Y006441D02*
X001261Y006441D01*
D20*
X001410Y002681D02*
X001410Y001785D01*
M02*
