G75*
G70*
%OFA0B0*%
%FSLAX24Y24*%
%IPPOS*%
%LPD*%
%AMOC8*
5,1,8,0,0,1.08239X$1,22.5*
%
%ADD10C,0.0600*%
%ADD11C,0.0357*%
%ADD12C,0.0180*%
%ADD13C,0.0120*%
D10*
X001410Y001785D03*
X002410Y001785D03*
X003410Y001785D03*
X004410Y001785D03*
X005410Y001785D03*
X006410Y001785D03*
D11*
X006535Y004285D03*
X005535Y004285D03*
X006035Y005285D03*
X004264Y006639D03*
X000848Y003410D03*
D12*
X001473Y002785D01*
X003410Y002785D01*
X005410Y004785D01*
X006035Y004785D01*
X006535Y004285D01*
X006410Y003410D02*
X006410Y001785D01*
X006410Y003410D02*
X005535Y004285D01*
X006035Y005285D02*
X004681Y006639D01*
X004264Y006639D01*
X003410Y002785D02*
X003410Y001785D01*
D13*
X000762Y000762D02*
X000626Y000949D01*
X000554Y001169D01*
X000545Y001285D01*
X000545Y003205D01*
X000644Y003106D01*
X000776Y003051D01*
X000824Y003051D01*
X001320Y002556D01*
X001419Y002515D01*
X003140Y002515D01*
X003140Y002193D01*
X003138Y002192D01*
X003003Y002057D01*
X002930Y001880D01*
X002930Y001690D01*
X003003Y001513D01*
X003138Y001378D01*
X003315Y001305D01*
X003505Y001305D01*
X003682Y001378D01*
X003817Y001513D01*
X003890Y001690D01*
X003890Y001880D01*
X003817Y002057D01*
X003682Y002192D01*
X003680Y002193D01*
X003680Y002673D01*
X005189Y004182D01*
X005231Y004082D01*
X005332Y003981D01*
X005464Y003926D01*
X005512Y003926D01*
X006140Y003298D01*
X006140Y002193D01*
X006138Y002192D01*
X006003Y002057D01*
X005930Y001880D01*
X005930Y001690D01*
X006003Y001513D01*
X006138Y001378D01*
X006315Y001305D01*
X006505Y001305D01*
X006682Y001378D01*
X006817Y001513D01*
X006890Y001690D01*
X006890Y001880D01*
X006817Y002057D01*
X006682Y002192D01*
X006680Y002193D01*
X006680Y003464D01*
X006639Y003563D01*
X006563Y003639D01*
X005894Y004308D01*
X005894Y004356D01*
X005839Y004488D01*
X005812Y004515D01*
X005923Y004515D01*
X006176Y004262D01*
X006176Y004214D01*
X006231Y004082D01*
X006332Y003981D01*
X006464Y003926D01*
X006606Y003926D01*
X006738Y003981D01*
X006839Y004082D01*
X006894Y004214D01*
X006894Y004356D01*
X006839Y004488D01*
X006738Y004589D01*
X006606Y004644D01*
X006558Y004644D01*
X006226Y004976D01*
X006238Y004981D01*
X006339Y005082D01*
X006394Y005214D01*
X006394Y005356D01*
X006339Y005488D01*
X006238Y005589D01*
X006106Y005644D01*
X006058Y005644D01*
X004834Y006868D01*
X004734Y006909D01*
X004502Y006909D01*
X004468Y006943D01*
X004336Y006998D01*
X004193Y006998D01*
X004061Y006943D01*
X003960Y006843D01*
X003906Y006711D01*
X003906Y006568D01*
X003960Y006436D01*
X004061Y006335D01*
X004193Y006281D01*
X004336Y006281D01*
X004468Y006335D01*
X004502Y006369D01*
X004569Y006369D01*
X005676Y005262D01*
X005676Y005214D01*
X005731Y005082D01*
X005758Y005055D01*
X005356Y005055D01*
X005257Y005014D01*
X005181Y004938D01*
X003298Y003055D01*
X001584Y003055D01*
X001206Y003433D01*
X001206Y003481D01*
X001152Y003613D01*
X001051Y003714D01*
X000919Y003769D01*
X000776Y003769D01*
X000644Y003714D01*
X000545Y003615D01*
X000545Y006285D01*
X000554Y006401D01*
X000626Y006621D01*
X000762Y006808D01*
X000949Y006944D01*
X001169Y007016D01*
X001285Y007025D01*
X006410Y007025D01*
X006526Y007016D01*
X006746Y006944D01*
X006933Y006808D01*
X007069Y006621D01*
X007141Y006401D01*
X007150Y006285D01*
X007150Y001285D01*
X007141Y001169D01*
X007069Y000949D01*
X006933Y000762D01*
X006746Y000626D01*
X006526Y000554D01*
X006410Y000545D01*
X001285Y000545D01*
X001169Y000554D01*
X000949Y000626D01*
X000762Y000762D01*
X000774Y000753D02*
X006921Y000753D01*
X007013Y000871D02*
X000682Y000871D01*
X000613Y000990D02*
X007082Y000990D01*
X007121Y001108D02*
X000574Y001108D01*
X000550Y001227D02*
X007145Y001227D01*
X007150Y001345D02*
X006602Y001345D01*
X006767Y001464D02*
X007150Y001464D01*
X007150Y001582D02*
X006845Y001582D01*
X006890Y001701D02*
X007150Y001701D01*
X007150Y001819D02*
X006890Y001819D01*
X006866Y001938D02*
X007150Y001938D01*
X007150Y002056D02*
X006817Y002056D01*
X006699Y002175D02*
X007150Y002175D01*
X007150Y002293D02*
X006680Y002293D01*
X006680Y002412D02*
X007150Y002412D01*
X007150Y002530D02*
X006680Y002530D01*
X006680Y002649D02*
X007150Y002649D01*
X007150Y002767D02*
X006680Y002767D01*
X006680Y002886D02*
X007150Y002886D01*
X007150Y003004D02*
X006680Y003004D01*
X006680Y003123D02*
X007150Y003123D01*
X007150Y003241D02*
X006680Y003241D01*
X006680Y003360D02*
X007150Y003360D01*
X007150Y003478D02*
X006674Y003478D01*
X006605Y003597D02*
X007150Y003597D01*
X007150Y003715D02*
X006487Y003715D01*
X006368Y003834D02*
X007150Y003834D01*
X007150Y003952D02*
X006669Y003952D01*
X006828Y004071D02*
X007150Y004071D01*
X007150Y004189D02*
X006884Y004189D01*
X006894Y004308D02*
X007150Y004308D01*
X007150Y004426D02*
X006865Y004426D01*
X006783Y004545D02*
X007150Y004545D01*
X007150Y004663D02*
X006539Y004663D01*
X006420Y004782D02*
X007150Y004782D01*
X007150Y004900D02*
X006302Y004900D01*
X006276Y005019D02*
X007150Y005019D01*
X007150Y005137D02*
X006362Y005137D01*
X006394Y005256D02*
X007150Y005256D01*
X007150Y005374D02*
X006386Y005374D01*
X006335Y005493D02*
X007150Y005493D01*
X007150Y005611D02*
X006185Y005611D01*
X005972Y005730D02*
X007150Y005730D01*
X007150Y005848D02*
X005854Y005848D01*
X005735Y005967D02*
X007150Y005967D01*
X007150Y006085D02*
X005617Y006085D01*
X005498Y006204D02*
X007150Y006204D01*
X007147Y006322D02*
X005380Y006322D01*
X005261Y006441D02*
X007128Y006441D01*
X007089Y006559D02*
X005143Y006559D01*
X005024Y006678D02*
X007028Y006678D01*
X006942Y006796D02*
X004906Y006796D01*
X004496Y006915D02*
X006787Y006915D01*
X005446Y005493D02*
X000545Y005493D01*
X000545Y005611D02*
X005327Y005611D01*
X005209Y005730D02*
X000545Y005730D01*
X000545Y005848D02*
X005090Y005848D01*
X004972Y005967D02*
X000545Y005967D01*
X000545Y006085D02*
X004853Y006085D01*
X004735Y006204D02*
X000545Y006204D01*
X000548Y006322D02*
X004093Y006322D01*
X003958Y006441D02*
X000567Y006441D01*
X000606Y006559D02*
X003909Y006559D01*
X003906Y006678D02*
X000667Y006678D01*
X000753Y006796D02*
X003941Y006796D01*
X004032Y006915D02*
X000908Y006915D01*
X000545Y005374D02*
X005564Y005374D01*
X005676Y005256D02*
X000545Y005256D01*
X000545Y005137D02*
X005708Y005137D01*
X005268Y005019D02*
X000545Y005019D01*
X000545Y004900D02*
X005143Y004900D01*
X005025Y004782D02*
X000545Y004782D01*
X000545Y004663D02*
X004906Y004663D01*
X004788Y004545D02*
X000545Y004545D01*
X000545Y004426D02*
X004669Y004426D01*
X004551Y004308D02*
X000545Y004308D01*
X000545Y004189D02*
X004432Y004189D01*
X004314Y004071D02*
X000545Y004071D01*
X000545Y003952D02*
X004195Y003952D01*
X004077Y003834D02*
X000545Y003834D01*
X000545Y003715D02*
X000646Y003715D01*
X001049Y003715D02*
X003958Y003715D01*
X003840Y003597D02*
X001159Y003597D01*
X001206Y003478D02*
X003721Y003478D01*
X003603Y003360D02*
X001280Y003360D01*
X001398Y003241D02*
X003484Y003241D01*
X003366Y003123D02*
X001517Y003123D01*
X001109Y002767D02*
X000545Y002767D01*
X000545Y002649D02*
X001227Y002649D01*
X001383Y002530D02*
X000545Y002530D01*
X000545Y002412D02*
X003140Y002412D01*
X003140Y002293D02*
X000545Y002293D01*
X000545Y002175D02*
X001121Y002175D01*
X001138Y002192D02*
X001003Y002057D01*
X000930Y001880D01*
X000930Y001690D01*
X001003Y001513D01*
X001138Y001378D01*
X001315Y001305D01*
X001505Y001305D01*
X001682Y001378D01*
X001817Y001513D01*
X001890Y001690D01*
X001890Y001880D01*
X001817Y002057D01*
X001682Y002192D01*
X001505Y002265D01*
X001315Y002265D01*
X001138Y002192D01*
X001003Y002056D02*
X000545Y002056D01*
X000545Y001938D02*
X000954Y001938D01*
X000930Y001819D02*
X000545Y001819D01*
X000545Y001701D02*
X000930Y001701D01*
X000975Y001582D02*
X000545Y001582D01*
X000545Y001464D02*
X001053Y001464D01*
X001218Y001345D02*
X000545Y001345D01*
X000938Y000634D02*
X006757Y000634D01*
X006218Y001345D02*
X005602Y001345D01*
X005682Y001378D02*
X005817Y001513D01*
X005890Y001690D01*
X005890Y001880D01*
X005817Y002057D01*
X005682Y002192D01*
X005505Y002265D01*
X005315Y002265D01*
X005138Y002192D01*
X005003Y002057D01*
X004930Y001880D01*
X004930Y001690D01*
X005003Y001513D01*
X005138Y001378D01*
X005315Y001305D01*
X005505Y001305D01*
X005682Y001378D01*
X005767Y001464D02*
X006053Y001464D01*
X005975Y001582D02*
X005845Y001582D01*
X005890Y001701D02*
X005930Y001701D01*
X005930Y001819D02*
X005890Y001819D01*
X005866Y001938D02*
X005954Y001938D01*
X006003Y002056D02*
X005817Y002056D01*
X005699Y002175D02*
X006121Y002175D01*
X006140Y002293D02*
X003680Y002293D01*
X003680Y002412D02*
X006140Y002412D01*
X006140Y002530D02*
X003680Y002530D01*
X003680Y002649D02*
X006140Y002649D01*
X006140Y002767D02*
X003774Y002767D01*
X003892Y002886D02*
X006140Y002886D01*
X006140Y003004D02*
X004011Y003004D01*
X004129Y003123D02*
X006140Y003123D01*
X006140Y003241D02*
X004248Y003241D01*
X004366Y003360D02*
X006079Y003360D01*
X005960Y003478D02*
X004485Y003478D01*
X004603Y003597D02*
X005842Y003597D01*
X005723Y003715D02*
X004722Y003715D01*
X004840Y003834D02*
X005605Y003834D01*
X005401Y003952D02*
X004959Y003952D01*
X005077Y004071D02*
X005242Y004071D01*
X005894Y004308D02*
X006131Y004308D01*
X006186Y004189D02*
X006013Y004189D01*
X006131Y004071D02*
X006242Y004071D01*
X006250Y003952D02*
X006401Y003952D01*
X006012Y004426D02*
X005865Y004426D01*
X004616Y006322D02*
X004436Y006322D01*
X000990Y002886D02*
X000545Y002886D01*
X000545Y003004D02*
X000872Y003004D01*
X000628Y003123D02*
X000545Y003123D01*
X001699Y002175D02*
X002205Y002175D01*
X002179Y002161D02*
X002123Y002121D01*
X002074Y002072D01*
X002034Y002016D01*
X002002Y001954D01*
X001981Y001888D01*
X001971Y001825D01*
X002370Y001825D01*
X002370Y002224D01*
X002307Y002214D01*
X002241Y002193D01*
X002179Y002161D01*
X002063Y002056D02*
X001817Y002056D01*
X001866Y001938D02*
X001997Y001938D01*
X001890Y001819D02*
X002370Y001819D01*
X002370Y001825D02*
X002370Y001745D01*
X001971Y001745D01*
X001981Y001682D01*
X002002Y001616D01*
X002034Y001554D01*
X002074Y001498D01*
X002123Y001449D01*
X002179Y001409D01*
X002241Y001377D01*
X002307Y001356D01*
X002370Y001346D01*
X002370Y001745D01*
X002450Y001745D01*
X002450Y001825D01*
X002370Y001825D01*
X002450Y001825D02*
X002450Y002224D01*
X002513Y002214D01*
X002579Y002193D01*
X002641Y002161D01*
X002697Y002121D01*
X002746Y002072D01*
X002786Y002016D01*
X002818Y001954D01*
X002839Y001888D01*
X002849Y001825D01*
X002450Y001825D01*
X002450Y001819D02*
X002930Y001819D01*
X002849Y001745D02*
X002450Y001745D01*
X002450Y001346D01*
X002513Y001356D01*
X002579Y001377D01*
X002641Y001409D01*
X002697Y001449D01*
X002746Y001498D01*
X002786Y001554D01*
X002818Y001616D01*
X002839Y001682D01*
X002849Y001745D01*
X002842Y001701D02*
X002930Y001701D01*
X002975Y001582D02*
X002800Y001582D01*
X002711Y001464D02*
X003053Y001464D01*
X003218Y001345D02*
X001602Y001345D01*
X001767Y001464D02*
X002109Y001464D01*
X002020Y001582D02*
X001845Y001582D01*
X001890Y001701D02*
X001978Y001701D01*
X002370Y001701D02*
X002450Y001701D01*
X002450Y001582D02*
X002370Y001582D01*
X002370Y001464D02*
X002450Y001464D01*
X002450Y001938D02*
X002370Y001938D01*
X002370Y002056D02*
X002450Y002056D01*
X002450Y002175D02*
X002370Y002175D01*
X002615Y002175D02*
X003121Y002175D01*
X003003Y002056D02*
X002757Y002056D01*
X002823Y001938D02*
X002954Y001938D01*
X003602Y001345D02*
X004218Y001345D01*
X004138Y001378D02*
X004315Y001305D01*
X004505Y001305D01*
X004682Y001378D01*
X004817Y001513D01*
X004890Y001690D01*
X004890Y001880D01*
X004817Y002057D01*
X004682Y002192D01*
X004505Y002265D01*
X004315Y002265D01*
X004138Y002192D01*
X004003Y002057D01*
X003930Y001880D01*
X003930Y001690D01*
X004003Y001513D01*
X004138Y001378D01*
X004053Y001464D02*
X003767Y001464D01*
X003845Y001582D02*
X003975Y001582D01*
X003930Y001701D02*
X003890Y001701D01*
X003890Y001819D02*
X003930Y001819D01*
X003954Y001938D02*
X003866Y001938D01*
X003817Y002056D02*
X004003Y002056D01*
X004121Y002175D02*
X003699Y002175D01*
X004602Y001345D02*
X005218Y001345D01*
X005053Y001464D02*
X004767Y001464D01*
X004845Y001582D02*
X004975Y001582D01*
X004930Y001701D02*
X004890Y001701D01*
X004890Y001819D02*
X004930Y001819D01*
X004954Y001938D02*
X004866Y001938D01*
X004817Y002056D02*
X005003Y002056D01*
X005121Y002175D02*
X004699Y002175D01*
M02*
